<?xml version="1.0" encoding="UTF-8"?>
<svg width="402px" height="512px" viewBox="0 0 402 512" version="1.1" xmlns="http://www.w3.org/2000/svg" xmlns:xlink="http://www.w3.org/1999/xlink">
    <title>fertilizer</title>
    <g id="Page-1" stroke="none" stroke-width="1" fill="none" fill-rule="evenodd">
        <g id="fertilizer" fill="#428CFF" fill-rule="nonzero">
            <path d="M81.95976,488.482966 C121.083411,497.519521 160.96288,502.374634 201,502.97548 C241.03712,502.374634 280.916589,497.519521 320.04024,488.482966 C337.007828,502.766312 357.880449,510.84141 379.53624,511.500488 C389.071265,511.370453 397.336631,504.469745 399.69252,494.672122 C406.22904,474.459327 398.34984,438.492318 378.70812,419.00415 C387.789338,365.089696 392.888778,310.506033 393.96,255.750244 C392.899399,200.995347 387.810712,146.41169 378.74028,92.4963382 C398.382,73.0081696 406.2612,37.0837854 399.72468,16.828366 C397.368791,7.03074274 389.103425,0.130034507 379.5684,9.46466031e-14 C357.912609,0.659078097 337.039988,8.7341756 320.0724,23.017522 C280.938232,13.9787028 241.047882,9.12357717 201,8.52500813 C160.96288,9.12585386 121.083411,13.9809664 81.95976,23.017522 C64.9834356,8.72726898 44.0984853,0.651766624 22.4316,9.46466031e-14 C12.8965746,0.130034507 4.63120852,7.03074274 2.27532,16.828366 C-4.2612,37.0411603 3.618,73.0081696 23.25972,92.4963382 C14.189288,146.41169 9.10060134,200.995347 8.04,255.750244 C9.10060134,310.505141 14.189288,365.088798 23.25972,419.00415 C3.618,438.492318 -4.2612,474.459327 2.27532,494.672122 C4.63120852,504.469745 12.8965746,511.370453 22.4316,511.500488 C44.0984853,510.848721 64.9834356,502.773219 81.95976,488.482966 Z M17.487,489.122341 C14.6010143,472.391684 17.9751664,455.127008 26.8938,440.990146 C27.40032,443.888648 27.88272,446.659276 28.34904,449.276453 C28.8398005,452.312084 30.8366172,454.831005 33.5724898,455.865673 C36.3083624,456.900339 39.3578425,456.289853 41.5495894,454.268708 C43.7413363,452.247564 44.7345173,449.130064 44.14764,446.113675 C32.410423,383.373298 25.7105537,319.690802 24.12,255.750244 C25.7091932,191.801126 32.4090688,128.110013 44.14764,65.3612373 C44.8077276,60.8126127 41.9438106,56.5295599 37.6772568,55.6846323 C33.4107029,54.8397047 29.2818535,57.737944 28.34904,62.2325593 C27.88272,64.8497368 27.40032,67.6203645 26.8938,70.5188673 C17.9751664,56.3820049 14.6010143,39.1173292 17.487,22.3866713 C19.19952,17.0500163 21.3864,17.0500163 22.4316,17.0500163 C35.8036502,17.598491 48.8791999,21.389745 60.65376,28.1325268 L58.24176,28.7548524 C54.0456147,29.984737 51.534982,34.532559 52.5780487,39.0142389 C53.6211152,43.4959187 57.8389057,46.2831354 62.09292,45.3018932 C107.53496,33.1347113 154.139932,26.5161129 201,25.5750244 C247.861524,26.5043081 294.469211,33.1114677 339.91512,45.2677932 C344.169135,46.2490354 348.386925,43.4618187 349.429991,38.9801389 C350.473058,34.498459 347.962425,29.950637 343.76628,28.7207524 L341.35428,28.0984268 C353.129129,21.3687749 366.201647,17.5892676 379.5684,17.0500163 C380.6136,17.0500163 382.7844,17.0500163 384.513,22.3525713 C387.398985,39.0832292 384.024834,56.3479049 375.1062,70.4847672 C374.59968,67.5862645 374.11728,64.8156368 373.65096,62.1984593 C373.160199,59.1628294 371.163382,56.6439073 368.42751,55.6092402 C365.691637,54.5745732 362.642158,55.1850594 360.45041,57.2062042 C358.258664,59.227349 357.265483,62.3448494 357.85236,65.3612373 C369.590931,128.110013 376.290807,191.801126 377.88,255.750244 C376.290807,319.699361 369.590931,383.390475 357.85236,446.13925 C357.265483,449.155639 358.258664,452.273139 360.45041,454.294283 C362.642158,456.315428 365.691637,456.925914 368.42751,455.891248 C371.163382,454.85658 373.160199,452.337659 373.65096,449.302028 C374.11728,446.684851 374.59968,443.914223 375.1062,441.015721 C384.024834,455.152583 387.398985,472.417259 384.513,489.147916 C382.80048,494.450472 380.6136,494.450472 379.5684,494.450472 C366.19635,493.901997 353.1208,490.110743 341.34624,483.367961 L343.75824,482.745635 C347.954385,481.515751 350.465018,476.967929 349.421951,472.486249 C348.378885,468.004569 344.161095,465.217353 339.90708,466.198595 C294.46504,478.365777 247.860068,484.984375 201,485.925463 C154.138476,484.99618 107.530789,478.38902 62.08488,466.232695 C59.2650211,465.406198 56.244316,466.269083 54.1976545,468.485735 C52.150993,470.702387 51.4014516,473.922896 52.2405608,476.894658 C53.0796701,479.86642 55.3749724,482.120329 58.23372,482.779735 L60.64572,483.402061 C48.8708715,490.131713 35.7983537,493.91122 22.4316,494.450472 C21.3864,494.450472 19.19952,494.450472 17.487,489.147916 L17.487,489.122341 Z" id="Shape"></path>
            <path d="M80.4,255.750244 C80.4,326.373723 134.39446,383.625366 201,383.625366 C267.60554,383.625366 321.6,326.373723 321.6,255.750244 C321.6,185.126765 267.60554,127.875122 201,127.875122 C134.425684,127.954988 80.4753227,185.159872 80.4,255.750244 Z M201,366.57535 C172.851827,366.578418 145.900663,354.502469 126.28428,333.097643 C130.839071,327.290864 137.597001,323.937752 144.72,323.950309 C150.151211,323.966009 155.409759,325.975213 159.60204,329.636489 C161.521138,331.284371 164.047985,331.905719 166.455237,331.321679 C168.862489,330.73764 170.883084,329.013008 171.9354,326.644212 C176.797117,315.714704 186.722423,308.302539 198.0654,307.130468 C196.951626,311.694003 195.480559,316.151004 193.66752,320.455056 C192.447023,323.240141 192.733625,326.506031 194.417789,329.004534 C196.101952,331.503036 198.923345,332.847941 201.803657,332.525237 C204.683971,332.202533 207.177972,330.262104 208.33248,327.445562 C210.725388,321.793617 212.633219,315.924582 214.03284,309.909621 C221.080884,313.292981 226.763694,319.224925 230.0646,326.644212 C231.116916,329.013008 233.137511,330.73764 235.544763,331.321679 C237.952015,331.905719 240.478862,331.284371 242.39796,329.636489 C246.590241,325.975213 251.848789,323.966009 257.28,323.950309 C264.402999,323.937752 271.160929,327.290864 275.71572,333.097643 C256.099337,354.502469 229.148173,366.578418 201,366.57535 L201,366.57535 Z M206.81292,227.975767 C206.280432,219.025449 209.090471,210.212344 214.63584,203.440794 C222.43464,196.254212 237.08352,198.070039 243.09744,199.17829 C243.348679,199.318624 243.534664,199.562049 243.612,199.851766 C243.82908,206.279622 243.4914,222.016787 235.84536,229.092543 C228.19932,236.1683 213.55848,234.429199 208.0752,233.465873 L206.81292,227.975767 Z M192.46152,237.532302 C187.25964,241.573155 175.42476,249.509938 165.92952,247.046211 C156.78143,242.867647 149.689759,234.835343 146.36016,224.881189 C146.295223,224.538598 146.361775,224.182691 146.54508,223.892289 C153.180582,218.149087 161.230937,214.545332 169.74048,213.508621 C171.059871,213.501917 172.375005,213.667994 173.65596,214.003279 C181.44656,217.394018 187.712032,223.826888 191.15904,231.973996 L192.46152,237.532302 Z M305.520012,255.750244 C305.522992,278.743013 298.732851,301.159136 286.1034,319.84978 C278.556403,311.556421 268.148908,306.880646 257.28,306.900293 C251.301118,306.917739 245.404109,308.375255 240.0342,311.162797 C234.211306,302.653094 226.076589,296.231604 216.7182,292.757304 C217.760659,278.80949 216.616898,264.77491 213.33336,251.223465 C214.94136,251.342815 216.54936,251.496265 218.286,251.496265 C228.440394,251.99998 238.42734,248.617422 246.426,241.965306 C258.81564,230.439495 260.094,210.277851 259.692,199.237965 C259.297328,190.904067 253.553908,183.949739 245.81496,182.435174 C235.62024,180.525572 216.62976,179.025171 204.0552,190.644757 C199.330862,195.253884 195.836549,201.102659 193.9248,207.600998 C189.419373,202.743398 183.770235,199.252467 177.5634,197.490338 C162.4482,193.423909 147.11592,202.187618 136.9212,210.277851 C130.638479,215.442184 128.531181,224.510468 131.83188,232.178596 C137.29104,244.352308 146.97924,259.697323 162.09444,263.652926 C164.633698,264.312341 167.238736,264.644376 169.85304,264.641827 C179.763258,264.118221 189.331832,260.633837 197.45436,254.590843 C200.282033,266.112202 201.367531,278.036357 200.67036,289.918476 C185.304198,290.100953 170.933125,298.011044 161.94972,311.230997 C156.589949,308.422379 150.698455,306.941548 144.72,306.900293 C133.851092,306.880646 123.443597,311.556421 115.8966,319.84978 C89.7608675,280.843229 90.2016806,228.451348 116.989584,189.945427 C143.777488,151.439506 190.856074,135.525249 233.719758,150.486426 C276.583443,165.447603 305.541284,207.901679 305.520012,255.750244 Z" id="Shape"></path>
            <path d="M65.124,110.33918 C108.776354,93.9872973 154.70427,85.5068443 201,85.2500813 C247.29573,85.5068443 293.223646,93.9872973 336.876,110.33918 C339.584688,111.353395 342.597913,110.758329 344.780622,108.778136 C346.963331,106.797943 347.98392,103.733462 347.457942,100.739053 C346.931964,97.7446444 344.939328,95.27523 342.23064,94.2610149 C250.918471,59.6751231 151.129769,59.6751231 59.8176,94.2610149 C55.6303317,95.828856 53.4345572,100.699063 54.9132002,105.138925 C56.3918432,109.578788 60.9849717,111.907021 65.17224,110.33918 L65.124,110.33918 Z" id="Shape"></path>
            <path d="M59.79348,417.239473 C105.12355,434.371987 152.876429,443.185215 201,443.300423 C249.123571,443.185215 296.87645,434.371987 342.20652,417.239473 C346.393788,415.671632 348.589563,410.801425 347.11092,406.361563 C345.632277,401.9217 341.039148,399.593467 336.85188,401.161308 C293.207168,417.510376 247.287627,425.990788 201,426.250407 C154.70427,425.993643 108.776354,417.51319 65.124,401.161308 C60.9367317,399.593467 56.343603,401.9217 54.86496,406.361563 C53.386317,410.801425 55.5820917,415.671632 59.76936,417.239473 L59.79348,417.239473 Z" id="Shape"></path>
        </g>
    </g>
</svg>