<?xml version="1.0" encoding="UTF-8"?>
<svg width="402px" height="512px" viewBox="0 0 402 512" version="1.1" xmlns="http://www.w3.org/2000/svg" xmlns:xlink="http://www.w3.org/1999/xlink">
    <title>moisture-wicking-fabric</title>
    <g id="Page-1" stroke="none" stroke-width="1" fill="none" fill-rule="evenodd">
        <g id="moisture-wicking-fabric" transform="translate(0.000000, 0.000000)" fill="#428CFF" fill-rule="nonzero">
            <path d="M381.155556,273.066667 L314.607133,273.066667 C316.01139,248.814933 321.588298,218.154667 333.196825,203.332267 C357.132868,171.228098 371.607173,129.527499 374.15433,85.3333333 L394.529435,85.3333333 C397.15507,85.3362065 399.539048,83.3779393 400.624241,80.3268864 C401.709434,77.2758336 401.294996,73.6966819 399.5647,71.1765333 L352.756123,2.90986667 C351.448479,1.1402979 349.626851,0.137230421 347.720858,0.137230421 C345.814864,0.137230421 343.993236,1.1402979 342.685592,2.90986667 L295.877015,71.1765333 C294.146719,73.6966819 293.732281,77.2758336 294.817474,80.3268864 C295.902668,83.3779393 298.286645,85.3362065 300.912281,85.3333333 L320.384649,85.376 C318.170741,111.445658 309.396025,135.897709 295.375495,155.067733 C267.370592,190.7968 262.027727,248.8064 261.024686,272.0768 C261.024686,272.4096 261.058121,272.733867 261.064808,273.066667 L194.242221,273.066667 C195.646478,248.814933 201.223386,218.154667 212.831913,203.332267 C236.767956,171.228098 251.242261,129.527499 253.789418,85.3333333 L274.164522,85.3333333 C276.790158,85.3362065 279.174135,83.3779393 280.259329,80.3268864 C281.344522,77.2758336 280.930084,73.6966819 279.199788,71.1765333 L232.391211,2.90986667 C231.083567,1.1402979 229.261939,0.137230421 227.355945,0.137230421 C225.449952,0.137230421 223.628324,1.1402979 222.32068,2.90986667 L175.512103,71.1765333 C173.781807,73.6966819 173.367369,77.2758336 174.452562,80.3268864 C175.537755,83.3779393 177.921733,85.3362065 180.547368,85.3333333 L200.019736,85.376 C197.805829,111.445658 189.031113,135.897709 175.010582,155.067733 C147.00568,190.7968 141.662815,248.8064 140.659774,272.0768 C140.659774,272.4096 140.659774,272.733867 140.699896,273.066667 L73.6700133,273.066667 C75.0742706,248.814933 80.6511782,218.154667 92.2597053,203.332267 C116.194707,171.228066 130.666835,129.52693 133.210523,85.3333333 L153.592315,85.3333333 C156.217951,85.3362065 158.601928,83.3779393 159.687121,80.3268864 C160.772315,77.2758336 160.357876,73.6966819 158.627581,71.1765333 L111.819004,2.90986667 C110.51136,1.1402979 108.689732,0.137230421 106.783738,0.137230421 C104.877744,0.137230421 103.056116,1.1402979 101.748473,2.90986667 L54.9398955,71.1765333 C53.2096,73.6966819 52.7951616,77.2758336 53.8803547,80.3268864 C54.9655478,83.3779393 57.3495253,85.3362065 59.975161,85.3333333 L79.447529,85.3333333 C77.2265657,111.403028 68.4529252,135.855078 54.438375,155.0336 C26.4334721,190.7968 21.0839205,248.8064 20.0608187,272.0768 L20.0608187,273.066667 C8.98153447,273.066667 -8.90879313e-14,284.528177 -8.90879313e-14,298.666667 C-8.90879313e-14,312.805156 8.98153447,324.266667 20.0608187,324.266667 L28.3125021,324.266667 L14.3301115,354.005333 C13.0475293,356.620822 12.9712148,359.916128 14.1305225,362.623708 C15.2898302,365.331289 17.5041764,367.029388 19.9218117,367.065398 C22.3394469,367.100277 24.5837796,365.467545 25.7915259,362.794667 L43.9064452,324.266667 L61.7472,324.266667 L47.7648094,354.005333 C46.4822271,356.620822 46.4059126,359.916128 47.5652204,362.623708 C48.7245281,365.331289 50.9388743,367.029388 53.3565095,367.065398 C55.7741447,367.100277 58.0184774,365.467545 59.2262238,362.794667 L77.3411431,324.266667 L95.1818979,324.266667 L81.1995072,354.005333 C79.9169248,356.620822 79.8406108,359.916128 80.9999181,362.623708 C82.1592261,365.331289 84.3735721,367.029388 86.7912077,367.065398 C89.2088426,367.100277 91.4531754,365.467545 92.6609216,362.794667 L110.775841,324.266667 L128.616596,324.266667 L114.634205,354.005333 C113.351623,356.620822 113.275309,359.916128 114.434616,362.623708 C115.593924,365.331289 117.80827,367.029388 120.225906,367.065398 C122.64354,367.100277 124.887873,365.467545 126.095619,362.794667 L144.210539,324.266667 L162.051294,324.266667 L148.068903,354.005333 C146.78632,356.620822 146.710006,359.916128 147.869314,362.623708 C149.028622,365.331289 151.242968,367.029388 153.660603,367.065398 C156.078238,367.100277 158.322571,365.467545 159.530317,362.794667 L177.645237,324.266667 L195.485991,324.266667 L181.503601,354.005333 C180.221018,356.620822 180.144704,359.916128 181.304012,362.623708 C182.46332,365.331289 184.677666,367.029388 187.095301,367.065398 C189.512936,367.100277 191.757269,365.467545 192.965015,362.794667 L211.079935,324.266667 L228.920689,324.266667 L214.938299,354.005333 C213.655716,356.620822 213.579402,359.916128 214.73871,362.623708 C215.898018,365.331289 218.112364,367.029388 220.529999,367.065398 C222.947634,367.100277 225.191967,365.467545 226.399713,362.794667 L244.514632,324.266667 L262.355387,324.266667 L248.372996,354.005333 C247.090414,356.620822 247.0141,359.916128 248.173407,362.623708 C249.332715,365.331289 251.547061,367.029388 253.964697,367.065398 C256.382332,367.100277 258.626665,365.467545 259.834411,362.794667 L277.94933,324.266667 L295.790085,324.266667 L281.807694,354.005333 C280.525112,356.620822 280.448798,359.916128 281.608105,362.623708 C282.767413,365.331289 284.981759,367.029388 287.399395,367.065398 C289.81703,367.100277 292.061363,365.467545 293.269109,362.794667 L311.384028,324.266667 L329.224783,324.266667 L315.242392,354.005333 C313.95981,356.620822 313.883496,359.916128 315.042803,362.623708 C316.202111,365.331289 318.416457,367.029388 320.834093,367.065398 C323.251728,367.100277 325.49606,365.467545 326.703807,362.794667 L344.818726,324.266667 L362.659481,324.266667 L348.67709,354.005333 C347.394508,356.620822 347.318194,359.916128 348.477501,362.623708 C349.636809,365.331289 351.851155,367.029388 354.268791,367.065398 C356.686425,367.100277 358.930758,365.467545 360.138504,362.794667 L378.253424,324.266667 L381.155556,324.266667 C392.234839,324.266667 401.216374,312.805156 401.216374,298.666667 C401.216374,284.528177 392.234839,273.066667 381.155556,273.066667 Z M274.371818,273.066667 C275.294615,251.733333 280.095838,198.741333 304.830827,167.176533 C320.948118,145.327529 331.063239,117.384936 333.651537,87.5605333 C334.154293,82.6862828 332.985482,77.7721159 330.444493,74.0767879 C327.903504,70.3814598 324.237182,68.2639543 320.384649,68.2666667 L315.623548,68.2666667 L347.720858,21.4954667 L379.818168,68.2666667 L374.181078,68.2666667 C367.210493,68.2500544 361.398836,75.0685089 360.827259,83.9338667 C358.551716,124.103806 345.447577,162.029323 323.741492,191.266133 C305.593138,214.417067 301.881887,259.7376 301.179758,273.066667 L288.414391,273.066667 L274.371818,273.066667 Z M154.006905,273.066667 C154.929703,251.733333 159.730926,198.741333 184.465915,167.176533 C200.583206,145.327529 210.698326,117.384936 213.286625,87.5605333 C213.789381,82.6862828 212.62057,77.7721159 210.079581,74.0767879 C207.538592,70.3814598 203.87227,68.2639543 200.019736,68.2666667 L195.258635,68.2666667 L227.355945,21.4954667 L259.453255,68.2666667 L253.816165,68.2666667 C246.845581,68.2500544 241.033924,75.0685089 240.462347,83.9338667 C238.186804,124.103806 225.082665,162.029323 203.37658,191.266133 C185.228226,214.417067 181.516975,259.7376 180.814846,273.066667 L168.049478,273.066667 L154.006905,273.066667 Z M33.4346979,273.066667 C34.3574955,251.733333 39.1520312,198.741333 63.8937076,167.176533 C80.0057153,145.322976 90.1199769,117.382753 92.7144172,87.5605333 C93.2171734,82.6862828 92.0483625,77.7721159 89.5073736,74.0767879 C86.9663847,70.3814598 83.3000622,68.2639543 79.447529,68.2666667 L74.7131758,68.2666667 L106.810486,21.4954667 L138.8543,68.2666667 L133.210523,68.2666667 C126.252781,68.2722812 120.460673,75.0848556 119.89014,83.9338667 C117.614596,124.103806 104.510457,162.029323 82.8043727,191.266133 C64.6627057,214.417067 60.9380803,259.7376 60.2426386,273.066667 L47.477271,273.066667 L33.4346979,273.066667 Z M381.155556,307.2 L20.0608187,307.2 C16.367724,307.2 13.3738791,303.379496 13.3738791,298.666667 C13.3738791,293.953837 16.367724,290.133333 20.0608187,290.133333 L33.4346979,290.133333 L60.2426386,290.133333 C60.3563166,290.133333 60.4633076,290.090667 60.5769856,290.090667 L153.993531,290.090667 L180.801472,290.090667 C180.91515,290.090667 181.022141,290.048 181.142506,290.048 L274.358444,290.048 L301.166384,290.048 C301.280062,290.048 301.387053,290.005333 301.507418,290.005333 L381.155556,290.005333 C384.84865,290.005333 387.842495,293.825837 387.842495,298.538667 C387.842495,303.251496 384.84865,307.072 381.155556,307.072 L381.155556,307.2 Z" id="Shape"></path>
            <path d="M151.292008,377.335467 C148.849049,374.839464 145.376292,374.839464 142.933333,377.335467 C141.468894,378.88 106.991033,414.5664 106.991033,460.8 C106.991033,489.076978 124.954103,511.999999 147.112671,511.999999 C169.271238,511.999999 187.234308,489.076978 187.234308,460.8 C187.234308,414.5664 152.756448,378.88 151.292008,377.335467 Z M147.112671,494.933333 C132.340292,494.933333 120.364912,479.651319 120.364912,460.8 C120.364912,431.453867 138.660379,405.751467 147.112671,395.451733 C155.564962,405.751467 173.860429,431.453867 173.860429,460.8 C173.860429,479.651319 161.88505,494.933333 147.112671,494.933333 Z" id="Shape"></path>
            <path d="M40.1216374,512 C62.2710386,511.971777 80.2211585,489.065281 80.2432749,460.8 C80.2432749,414.5664 45.7654144,378.88 44.3009747,377.335467 C41.8580163,374.839464 38.3852586,374.839464 35.9423002,377.335467 C34.4778604,378.88 0,414.5664 0,460.8 C0.0221162502,489.065281 17.9722363,511.971777 40.1216374,512 Z M40.1216374,395.451733 C48.573929,405.751467 66.8693957,431.453867 66.8693957,460.8 C66.8693957,479.651319 54.8940164,494.933333 40.1216374,494.933333 C25.3492584,494.933333 13.3738791,479.651319 13.3738791,460.8 C13.3738791,431.453867 31.6693458,405.751467 40.1216374,395.451733 Z" id="Shape"></path>
            <path d="M365.274074,377.335467 C362.831116,374.839464 359.358358,374.839464 356.9154,377.335467 C355.45096,378.88 320.973099,414.5664 320.973099,460.8 C320.973099,489.076979 338.936168,512 361.094737,512 C383.253305,512 401.216374,489.076979 401.216374,460.8 C401.216374,414.5664 366.738514,378.88 365.274074,377.335467 Z M361.094737,494.933333 C346.322358,494.933333 334.346979,479.651319 334.346979,460.8 C334.346979,431.453867 352.642445,405.751467 361.094737,395.451733 C369.547028,405.751467 387.842495,431.453867 387.842495,460.8 C387.842495,479.651319 375.867116,494.933333 361.094737,494.933333 Z" id="Shape"></path>
            <path d="M254.103704,512 C276.253105,511.971777 294.203225,489.065281 294.225341,460.8 C294.225341,414.5664 259.747481,378.88 258.283041,377.335467 C255.840083,374.839464 252.367325,374.839464 249.924366,377.335467 C248.459927,378.88 213.982066,414.5664 213.982066,460.8 C214.004183,489.065281 231.954302,511.971777 254.103704,512 Z M254.103704,395.451733 C262.555995,405.751467 280.851462,431.453867 280.851462,460.8 C280.851462,479.651319 268.876083,494.933333 254.103704,494.933333 C239.331325,494.933333 227.355945,479.651319 227.355945,460.8 C227.355945,431.453867 245.651412,405.751467 254.103704,395.451733 Z" id="Shape"></path>
        </g>
    </g>
</svg>