<?xml version="1.0" encoding="UTF-8"?>
<svg width="402px" height="512px" viewBox="0 0 402 512" version="1.1" xmlns="http://www.w3.org/2000/svg" xmlns:xlink="http://www.w3.org/1999/xlink">
    <title>water-drop</title>
    <g id="Page-1" stroke="none" stroke-width="1" fill="none" fill-rule="evenodd">
        <g id="water-drop" fill="#428CFF" fill-rule="nonzero">
            <path d="M144.613702,440.618527 C95.2297703,425.263059 62.0494866,380.166146 62.0494866,328.399088 C62.0494866,303.096052 69.9708469,278.989089 84.9583696,258.683898 C85.3002483,258.220708 85.609042,257.714407 85.8667043,257.199082 C88.3430693,252.247355 86.3319,246.232895 81.3791699,243.75653 C76.8966484,241.511761 71.534867,242.953466 68.7216361,246.917656 C51.239702,270.666698 41.9989504,298.83911 41.9989504,328.399088 C41.9989504,358.33403 51.4512458,386.796187 69.333208,410.705642 C86.6176344,433.816043 111.237916,451.239827 138.660401,459.765742 C139.651949,460.074535 140.654526,460.220912 141.640059,460.220912 C145.914045,460.220912 149.875226,457.464828 151.210659,453.168785 C152.854885,447.881195 149.901293,442.262753 144.613702,440.618527 L144.613702,440.618527 Z" id="Path"></path>
            <path d="M401.605251,234.281176 C401.605251,215.197124 395.657965,197.015391 384.403036,181.681979 L320.938913,87.4688222 C319.075123,84.7027124 315.959114,83.0444502 312.62354,83.0444502 C309.287967,83.0444502 306.171958,84.7027124 304.308167,87.4688222 L277.56543,127.167861 L194.8789,4.42437202 C193.016112,1.65826225 189.8991,0 186.564529,0 C183.229958,0 180.112947,1.65826225 178.250159,4.42437202 L36.3093263,215.128949 C12.6264539,247.312671 0.11128604,285.48679 0.11128604,325.546757 C0.11128604,428.357011 83.7542747,512 186.564529,512 C289.374784,512 373.017772,428.357011 373.017772,325.546757 C373.017772,317.339662 372.469363,309.117529 371.403623,301.023725 C389.909188,284.705783 401.605251,260.835429 401.605251,234.281176 Z M312.62354,111.015344 L367.770285,192.879761 C367.880568,193.050199 367.996867,193.21763 368.118179,193.382052 C376.907771,205.285648 381.553712,219.427999 381.553712,234.280173 C381.553712,272.287865 350.632234,303.209343 312.62354,303.209343 C274.615849,303.209343 243.694371,272.287865 243.694371,234.280173 C243.694371,219.427999 248.340312,205.285648 257.129904,193.382052 C257.246203,193.224648 257.357489,193.064235 257.464765,192.89881 L285.860751,150.745463 C285.912885,150.668265 285.967025,150.592069 286.017153,150.512865 L312.62354,111.015344 Z M352.965231,325.546757 C352.965231,417.301596 278.317363,491.948461 186.563527,491.948461 C94.808688,491.948461 20.1618222,417.301596 20.1618222,325.546757 C20.1618222,289.710647 31.3806581,255.567889 52.607217,226.811978 C52.7285288,226.648558 52.8458303,226.477117 52.9591215,226.301666 L186.564529,27.9698914 L265.478362,145.112986 L240.844044,181.682982 C229.590118,197.015391 223.642832,215.198126 223.642832,234.281176 C223.642832,283.345286 263.55943,323.261884 312.62354,323.261884 C326.970416,323.261884 340.532274,319.844099 352.545151,313.787532 C352.818855,317.697582 352.965231,321.623673 352.965231,325.546757 Z" id="Shape"></path>
            <path d="M277.27368,231.835891 C277.27368,226.978405 278.263223,222.290356 280.214238,217.902076 C282.464021,212.842071 280.185163,206.916841 275.12616,204.668061 C270.066154,202.421286 264.141927,204.696133 261.892145,209.756139 C258.793179,216.726054 257.222141,224.154146 257.222141,231.835891 C257.222141,250.031659 266.261375,266.945132 281.401289,277.07517 C283.113691,278.221115 285.050669,278.768522 286.967596,278.768522 C290.20191,278.768522 293.376068,277.206507 295.309037,274.318083 C298.38795,269.715252 297.153778,263.488247 292.55195,260.409333 C282.985361,254.00788 277.27368,243.326425 277.27368,231.835891 L277.27368,231.835891 Z" id="Path"></path>
            <path d="M181.810309,454.508228 C179.356001,448.057648 170.198463,446.217919 165.458279,451.259879 C159.814774,456.728936 162.852582,466.770747 170.591473,468.173352 C178.264195,469.854673 184.952385,461.710741 181.810309,454.508228 Z" id="Path"></path>
            <path d="M307.341965,286.214661 C313.806581,290.69217 323.064376,285.741445 322.932036,277.883247 C323.07741,270.024046 313.801568,265.063296 307.341965,269.541807 C301.486916,273.211238 301.463856,282.55726 307.341965,286.214661 Z" id="Path"></path>
        </g>
    </g>
</svg>